<svg xmlns="http://www.w3.org/2000/svg" viewBox="0 0 100 100">
  <rect width="100" height="100" rx="22" fill="#639922"/>
  <path d="M50 76 L18 60 L18 26 C18 26 35 20 50 28 Z" fill="white"/>
  <path d="M50 76 L82 60 L82 26 C82 26 65 20 50 28 Z" fill="#EAF3DE"/>
  <rect x="47" y="25" width="6" height="52" rx="1" fill="#173404"/>
  <path d="M20 50 L26 50 L30 38 L35 62 L39 40 L43 50 L47 50"
        fill="none" stroke="#639922" stroke-width="2.8"
        stroke-linecap="round" stroke-linejoin="round"/>
  <path d="M57 30 C68 24 84 32 84 48 C84 64 70 74 60 82"
        fill="none" stroke="#3B6D11" stroke-width="5" stroke-linecap="round"/>
  <circle cx="58" cy="84" r="8" fill="none" stroke="#3B6D11" stroke-width="4"/>
  <circle cx="58" cy="84" r="3.5" fill="#3B6D11"/>
</svg>
